<svg id="svg2" xmlns="http://www.w3.org/2000/svg" xmlns:xlink="http://www.w3.org/1999/xlink" viewBox="0 0 270.09 111.88">
    <defs>
        <style>.cls-1,.cls-2,.cls-3{fill:none;}.cls-1{clip-rule:evenodd;}.cls-3,.cls-4{fill-rule:evenodd;}.cls-3{clip-path:url(#clip-path);}.cls-4,.cls-6{fill:#4cb85d;}.cls-5{clip-path:url(#clip-path-4);}.cls-7{clip-path:url(#clip-path-6);}.cls-8{clip-path:url(#clip-path-8);}.cls-9{fill:#fff;}</style>
        <clipPath id="clip-path"><polygon class="cls-2" points="73.85 94.72 225.97 94.72 225.97 12.73 73.85 12.73 73.85 94.72 73.85 94.72"/></clipPath>
        <clipPath id="clip-path-4" transform="translate(-14.38 -12.73)">
            <path class="cls-1" d="M197.76,35.31a8.27,8.27,0,0,1,2.68-5.83,8.5,8.5,0,0,1,14.25,6.42A8.43,8.43,0,0,1,205.93,44a8.44,8.44,0,0,1-8.17-8.65M184.17,19.14s-.07,4.06-.08,4.51c-2-.67-16.72-5.36-30.5-5.83-11.68-.41-27.63-1-50.17,12.73l-.66.41C92.16,37.5,84.83,45.55,81,54.92a27.54,27.54,0,0,0-1.22,15.84,23.79,23.79,0,0,0,21.27,17.81c10,.88,17.56-3.55,20.25-11.85a16.24,16.24,0,0,0-7.09-18.41c-5.77-3.49-12-2.7-15.57-.35a10.19,10.19,0,0,0-4.86,8.71,9.65,9.65,0,0,0,9.34,9.49,11.08,11.08,0,0,0,3.54-.61A5.15,5.15,0,0,0,108,75l.14-.09.1-.05h0a3.13,3.13,0,0,0,1.43-2.59,3.27,3.27,0,0,0-.13-.87,3.19,3.19,0,0,0-3.65-2.22l-.22,0-.29.09-.44.14a8.06,8.06,0,0,1-1.7.25,3.16,3.16,0,0,1-2.7-3.12v0a3.58,3.58,0,0,1,.57-1.85c.69-1.08,2.6-2.14,5.17-1.91A8.63,8.63,0,0,1,113.68,68a8.85,8.85,0,0,1-1,9.38c-2.1,2.68-5.82,3.82-10.79,3.28a14.78,14.78,0,0,1-11.62-7.82,14.38,14.38,0,0,1-.33-13.42C95,50,104.58,50.07,109.83,51c7.46,1.28,18.77,7.89,23,23.19h10.32c-1.27-3.91-2-15.2,9.61-15.2,12.75,0,14.36,8.87,18,15.2h10.93c-2.87-4.07-4.9-8.6-4.26-12.41,1-5.62,5.48-5.12,11.75-4.41,2,.23,4.37.49,6.79.55a44.35,44.35,0,0,0,17.29-3.12c2.89-1.25,4.74-2.07,5.89-3.1a3.34,3.34,0,0,0,.85-1.49l.16-.4c.19-.47.44-1.5.58-2,.3-1.13-.72-.54-.72-.54a26.36,26.36,0,0,1-11.45,3.47c-5.69.12-17.15-5.65-18.35-6.27l-.11-.13-2.37-5.54c8.25,5.37,15.09,8.34,20.33,8.79,5.83.52,10.38-2.63,12.33-4,.2-.14,1-.65.8-1.27-.77-2.61-3.39-11.38-5.57-13.6a9.18,9.18,0,0,0-2.17-1.88c-8.34-4.8-28.13-7.7-29.06-7.83,0,0-.23-.06-.22.18"/>
        </clipPath>
        <clipPath id="clip-path-6" transform="translate(-14.38 -12.73)">
        <path class="cls-1" d="M207.41,36.08c-1.45,0-2.62-.77-2.62-1.72s1.17-1.73,2.62-1.73,2.62.77,2.62,1.73-1.17,1.72-2.62,1.72m-1-6.38a5.85,5.85,0,0,0-4.22,1.56,5.77,5.77,0,0,0-1.88,4.06,5.9,5.9,0,0,0,5.7,6,6,6,0,0,0,4.24-1.57,5.72,5.72,0,0,0,1.87-4.06,5.89,5.89,0,0,0-5.71-6"/>
        </clipPath>
        <clipPath id="clip-path-8" transform="translate(-14.38 -12.73)">
            <path class="cls-1" d="M187.75,72.1c0,.19-.15.33-.41.33h-.52v-.67h.51c.26,0,.42.11.42.34Zm.52,0c0-.47-.36-.75-.92-.75h-1v2.27h.51v-.73h.41l.5.73h.6l-.57-.82a.7.7,0,0,0,.51-.7Zm.89.44a1.95,1.95,0,1,1-1.94-1.89,1.9,1.9,0,0,1,1.94,1.89Zm.51,0a2.46,2.46,0,1,0-2.46,2.38,2.4,2.4,0,0,0,2.46-2.38Z"/>
        </clipPath>
    </defs>
    <title>logo-splash</title>
    <path class="cls-4" d="M197.76,35.31a8.27,8.27,0,0,1,2.68-5.83,8.5,8.5,0,0,1,14.25,6.42A8.43,8.43,0,0,1,205.93,44a8.44,8.44,0,0,1-8.17-8.65M184.17,19.14s-.07,4.06-.08,4.51c-2-.67-16.72-5.36-30.5-5.83-11.68-.41-27.63-1-50.17,12.73l-.66.41C92.16,37.5,84.83,45.55,81,54.92a27.54,27.54,0,0,0-1.22,15.84,23.79,23.79,0,0,0,21.27,17.81c10,.88,17.56-3.55,20.25-11.85a16.24,16.24,0,0,0-7.09-18.41c-5.77-3.49-12-2.7-15.57-.35a10.19,10.19,0,0,0-4.86,8.71,9.65,9.65,0,0,0,9.34,9.49,11.08,11.08,0,0,0,3.54-.61A5.15,5.15,0,0,0,108,75l.14-.09.1-.05h0a3.13,3.13,0,0,0,1.43-2.59,3.27,3.27,0,0,0-.13-.87,3.19,3.19,0,0,0-3.65-2.22l-.22,0-.29.09-.44.14a8.06,8.06,0,0,1-1.7.25,3.16,3.16,0,0,1-2.7-3.12v0a3.58,3.58,0,0,1,.57-1.85c.69-1.08,2.6-2.14,5.17-1.91A8.63,8.63,0,0,1,113.68,68a8.85,8.85,0,0,1-1,9.38c-2.1,2.68-5.82,3.82-10.79,3.28a14.78,14.78,0,0,1-11.62-7.82,14.38,14.38,0,0,1-.33-13.42C95,50,104.58,50.07,109.83,51c7.46,1.28,18.77,7.89,23,23.19h10.32c-1.27-3.91-2-15.2,9.61-15.2,12.75,0,14.36,8.87,18,15.2h10.93c-2.87-4.07-4.9-8.6-4.26-12.41,1-5.62,5.48-5.12,11.75-4.41,2,.23,4.37.49,6.79.55a44.35,44.35,0,0,0,17.29-3.12c2.89-1.25,4.74-2.07,5.89-3.1a3.34,3.34,0,0,0,.85-1.49l.16-.4c.19-.47.44-1.5.58-2,.3-1.13-.72-.54-.72-.54a26.36,26.36,0,0,1-11.45,3.47c-5.69.12-17.15-5.65-18.35-6.27l-.11-.13-2.37-5.54c8.25,5.37,15.09,8.34,20.33,8.79,5.83.52,10.38-2.63,12.33-4,.2-.14,1-.65.8-1.27-.77-2.61-3.39-11.38-5.57-13.6a9.18,9.18,0,0,0-2.17-1.88c-8.34-4.8-28.13-7.7-29.06-7.83,0,0-.23-.06-.22.18" transform="translate(-14.38 -12.73)"/>
    <g class="cls-5"><polygon class="cls-6" points="59.47 81.99 211.59 81.99 211.59 0 59.47 0 59.47 81.99 59.47 81.99"/></g>
    <g class="cls-5"><polygon class="cls-6" points="59.8 0 211.77 0 211.77 80.89 59.8 80.89 59.8 0 59.8 0"/></g>
    <path class="cls-4" d="M207.41,36.08c-1.45,0-2.62-.77-2.62-1.72s1.17-1.73,2.62-1.73,2.62.77,2.62,1.73-1.17,1.72-2.62,1.72m-1-6.38a5.85,5.85,0,0,0-4.22,1.56,5.77,5.77,0,0,0-1.88,4.06,5.9,5.9,0,0,0,5.7,6,6,6,0,0,0,4.24-1.57,5.72,5.72,0,0,0,1.87-4.06,5.89,5.89,0,0,0-5.71-6" transform="translate(-14.38 -12.73)"/>
    <g class="cls-7"><polygon class="cls-6" points="59.47 81.99 211.59 81.99 211.59 0 59.47 0 59.47 81.99 59.47 81.99"/></g>
    <g class="cls-7"><polygon class="cls-6" points="181.02 12.03 202.71 12.03 202.71 33.58 181.02 33.58 181.02 12.03 181.02 12.03"/></g>
    <path class="cls-4" d="M187.75,72.1c0,.19-.15.33-.41.33h-.52v-.67h.51c.26,0,.42.11.42.34Zm.52,0c0-.47-.36-.75-.92-.75h-1v2.27h.51v-.73h.41l.5.73h.6l-.57-.82a.7.7,0,0,0,.51-.7Zm.89.44a1.95,1.95,0,1,1-1.94-1.89,1.9,1.9,0,0,1,1.94,1.89Zm.51,0a2.46,2.46,0,1,0-2.46,2.38,2.4,2.4,0,0,0,2.46-2.38Z" transform="translate(-14.38 -12.73)"/>
    <g class="cls-8"><polygon class="cls-6" points="59.47 81.99 211.59 81.99 211.59 0 59.47 0 59.47 81.99 59.47 81.99"/></g>
    <g class="cls-8"><polygon class="cls-6" points="165.44 52.47 180.23 52.47 180.23 67.1 165.44 67.1 165.44 52.47 165.44 52.47"/></g>
    <path class="cls-9" d="M14.38,118.62l.78-.89a7.78,7.78,0,0,0,5.74,2.38c2.4,0,4.05-1.35,4.05-3.18v-.05c0-1.69-.89-2.67-4.53-3.41-3.84-.77-5.4-2.08-5.4-4.5v0c0-2.38,2.18-4.21,5.15-4.21a8,8,0,0,1,5.49,2l-.76.94a6.87,6.87,0,0,0-4.78-1.81c-2.35,0-3.91,1.35-3.91,3v0c0,1.7.87,2.73,4.67,3.5s5.26,2.09,5.26,4.42v0c0,2.59-2.22,4.37-5.31,4.37A9.09,9.09,0,0,1,14.38,118.62Z" transform="translate(-14.38 -12.73)"/>
    <path class="cls-9" d="M29.8,114.3v-9.36H31v9.24c0,3.78,2,5.95,5.42,5.95s5.33-2,5.33-5.83v-9.36h1.19v9.22c0,4.6-2.67,7-6.56,7S29.8,118.78,29.8,114.3Z" transform="translate(-14.38 -12.73)"/>
    <path class="cls-9" d="M46.41,118.62l.78-.89a7.79,7.79,0,0,0,5.74,2.38c2.4,0,4-1.35,4-3.18v-.05c0-1.69-.89-2.67-4.53-3.41-3.84-.77-5.4-2.08-5.4-4.5v0c0-2.38,2.18-4.21,5.15-4.21a8,8,0,0,1,5.49,2l-.76.94a6.85,6.85,0,0,0-4.78-1.81c-2.35,0-3.91,1.35-3.91,3v0c0,1.7.87,2.73,4.67,3.5s5.26,2.09,5.26,4.42v0c0,2.59-2.22,4.37-5.31,4.37A9.09,9.09,0,0,1,46.41,118.62Z" transform="translate(-14.38 -12.73)"/>
    <path class="cls-9" d="M62.08,104.94h11.4V106H63.27v6.29h9.18v1.1H63.27v6.43H73.59V121H62.08Z" transform="translate(-14.38 -12.73)"/>
    <path class="cls-9" d="M90.43,113v0a8.06,8.06,0,0,1,8.08-8.28,8,8,0,0,1,8,8.23v0a8.06,8.06,0,1,1-16.11,0Zm14.87,0v0a6.93,6.93,0,0,0-6.84-7.21,6.85,6.85,0,0,0-6.79,7.16v0a6.82,6.82,0,1,0,13.63,0Z" transform="translate(-14.38 -12.73)"/>
    <path class="cls-9" d="M110.34,109.29h1.12v2.61a5.61,5.61,0,0,1,4.8-2.89,5.8,5.8,0,0,1,5.67,6.07v0a5.84,5.84,0,0,1-5.67,6.11,5.62,5.62,0,0,1-4.8-2.79v6.17h-1.12Zm10.38,5.88v0a4.7,4.7,0,0,0-4.57-5,4.88,4.88,0,0,0-4.76,5v0a4.87,4.87,0,0,0,4.76,5C118.69,120.15,120.72,118.3,120.72,115.17Z" transform="translate(-14.38 -12.73)"/>
    <path class="cls-9" d="M124.64,115.14v0c0-3.39,2.38-6.09,5.53-6.09s5.35,2.66,5.35,6.11a3.32,3.32,0,0,1,0,.46h-9.67a4.62,4.62,0,0,0,4.57,4.6,5.23,5.23,0,0,0,4-1.83l.78.68a6.13,6.13,0,0,1-4.83,2.2A5.8,5.8,0,0,1,124.64,115.14Zm9.67-.57c-.16-2.35-1.51-4.53-4.18-4.53-2.31,0-4.1,1.95-4.3,4.53Z" transform="translate(-14.38 -12.73)"/>
    <path class="cls-9" d="M138.8,109.29h1.12v2.17a4.57,4.57,0,0,1,4.21-2.45c3,0,4.66,2,4.66,4.81V121h-1.12V114c0-2.4-1.35-4-3.7-4a4,4,0,0,0-4.05,4.17V121H138.8Z" transform="translate(-14.38 -12.73)"/>
    <path class="cls-9" d="M152.05,118.62l.77-.89a7.79,7.79,0,0,0,5.74,2.38c2.41,0,4.05-1.35,4.05-3.18v-.05c0-1.69-.89-2.67-4.53-3.41-3.84-.77-5.39-2.08-5.39-4.5v0c0-2.38,2.17-4.21,5.14-4.21a7.94,7.94,0,0,1,5.49,2l-.75.94a6.87,6.87,0,0,0-4.78-1.81c-2.36,0-3.91,1.35-3.91,3v0c0,1.7.87,2.73,4.66,3.5s5.26,2.09,5.26,4.42v0c0,2.59-2.22,4.37-5.3,4.37A9.08,9.08,0,0,1,152.05,118.62Z" transform="translate(-14.38 -12.73)"/>
    <path class="cls-9" d="M168,118v-7.64h-1.69v-1H168v-3.73h1.12v3.73h4.1v1h-4.1v7.52a2,2,0,0,0,2.33,2.27,4,4,0,0,0,1.72-.41v1a4.37,4.37,0,0,1-1.9.41A3,3,0,0,1,168,118Z" transform="translate(-14.38 -12.73)"/>
    <path class="cls-9" d="M175.54,117.57v0c0-2.42,2.08-3.79,5.1-3.79a13.94,13.94,0,0,1,3.87.5v-.5c0-2.36-1.44-3.57-3.84-3.57a7.78,7.78,0,0,0-3.66.94l-.41-1a9.4,9.4,0,0,1,4.14-1,5,5,0,0,1,3.68,1.28,4.4,4.4,0,0,1,1.19,3.29V121h-1.1V119a5.31,5.31,0,0,1-4.46,2.22C177.88,121.23,175.54,120,175.54,117.57Zm9-1v-1.32a15.42,15.42,0,0,0-3.95-.53c-2.47,0-3.85,1.1-3.85,2.72v0c0,1.69,1.6,2.68,3.39,2.68C182.5,120.18,184.53,118.71,184.53,116.58Z" transform="translate(-14.38 -12.73)"/>
    <path class="cls-9" d="M188.84,115.17v0a6.05,6.05,0,0,1,5.94-6.11,6.14,6.14,0,0,1,4.67,2.15l-.8.83a5.26,5.26,0,0,0-3.89-1.92,4.82,4.82,0,0,0-4.71,5v0a4.91,4.91,0,0,0,4.8,5.06,5.2,5.2,0,0,0,3.91-2l.78.69a6,6,0,0,1-10.7-3.75Z" transform="translate(-14.38 -12.73)"/>
    <path class="cls-9" d="M202.7,104.26h1.12v12.51l7.23-7.48h1.49l-5.1,5.17L212.7,121h-1.42l-4.62-5.69-2.84,2.86V121H202.7Z" transform="translate(-14.38 -12.73)"/>
    <path class="cls-9" d="M221.92,113v0a8,8,0,0,1,8-8.28,8.47,8.47,0,0,1,6.23,2.56l-.85.87a7.34,7.34,0,0,0-5.4-2.36,6.84,6.84,0,0,0-6.74,7.16v0a6.9,6.9,0,0,0,6.76,7.2,7.34,7.34,0,0,0,5.52-2.49l.8.78a8.43,8.43,0,0,1-6.36,2.79A8,8,0,0,1,221.92,113Z" transform="translate(-14.38 -12.73)"/>
    <path class="cls-9" d="M239.42,104.26h1.12V121h-1.12Z" transform="translate(-14.38 -12.73)"/>
    <path class="cls-9" d="M244.16,115.17v0a6,6,0,0,1,6-6.11,6,6,0,0,1,6,6.07v0a6,6,0,0,1-6,6.11A6,6,0,0,1,244.16,115.17Zm10.77,0v0a4.89,4.89,0,0,0-4.8-5.05,4.81,4.81,0,0,0-4.76,5v0a4.9,4.9,0,0,0,4.8,5.06A4.82,4.82,0,0,0,254.93,115.17Z" transform="translate(-14.38 -12.73)"/>
    <path class="cls-9" d="M259.37,116.42v-7.13h1.12v6.93c0,2.4,1.35,4,3.71,4a4,4,0,0,0,4.05-4.16v-6.75h1.12V121h-1.12v-2.17a4.57,4.57,0,0,1-4.21,2.45A4.45,4.45,0,0,1,259.37,116.42Z" transform="translate(-14.38 -12.73)"/>
    <path class="cls-9" d="M272.87,115.17v0a5.84,5.84,0,0,1,5.67-6.11,5.62,5.62,0,0,1,4.81,2.79v-7.54h1.12V121h-1.12v-2.6a5.65,5.65,0,0,1-4.81,2.88A5.8,5.8,0,0,1,272.87,115.17Zm10.55,0v0a4.87,4.87,0,0,0-4.76-5c-2.54,0-4.58,1.85-4.58,5v0a4.69,4.69,0,0,0,4.58,5A4.89,4.89,0,0,0,283.42,115.14Z" transform="translate(-14.38 -12.73)"/>
    <path class="cls-9" d="M75.54,117.42v0a3.65,3.65,0,1,1,7.3,0v0a3.65,3.65,0,1,1-7.3,0Zm6.88,0v0a3.23,3.23,0,1,0-6.46,0v0a3.23,3.23,0,1,0,6.46,0Zm-4.59-1.91h1.63c.76,0,1.37.4,1.37,1.14a1.13,1.13,0,0,1-.9,1.11l1,1.43h-.73l-.92-1.35h-.89v1.35h-.58Zm1.57,1.85c.53,0,.82-.27.82-.67s-.32-.65-.82-.65h-1v1.32Z" transform="translate(-14.38 -12.73)"/>
</svg>