<svg id="Layer_1" data-name="Layer 1" xmlns="http://www.w3.org/2000/svg" viewBox="0 0 270.09 20.36">
    <defs><style>.cls-1{fill:#fff;}</style></defs>
    <title>logo</title>
    <path class="cls-1" d="M9.26,26.31l.77-.89a7.81,7.81,0,0,0,5.75,2.37c2.4,0,4-1.34,4-3.17v-.05c0-1.69-.89-2.68-4.52-3.41-3.85-.78-5.4-2.08-5.4-4.5v-.05c0-2.38,2.17-4.21,5.14-4.21a7.94,7.94,0,0,1,5.49,1.95l-.75.93A6.9,6.9,0,0,0,15,13.48c-2.36,0-3.91,1.35-3.91,3v0c0,1.69.87,2.72,4.66,3.5S21,22.12,21,24.46v0c0,2.59-2.22,4.37-5.3,4.37A9.14,9.14,0,0,1,9.26,26.31Z" transform="translate(-9.26 -11.94)"/>
    <path class="cls-1" d="M24.68,22V12.63h1.19v9.24c0,3.78,2,5.95,5.42,5.95s5.33-2,5.33-5.83V12.63h1.19v9.22c0,4.6-2.68,7-6.57,7S24.68,26.47,24.68,22Z" transform="translate(-9.26 -11.94)"/><path class="cls-1" d="M41.29,26.31l.78-.89a7.77,7.77,0,0,0,5.74,2.37c2.4,0,4-1.34,4-3.17v-.05c0-1.69-.9-2.68-4.53-3.41-3.85-.78-5.4-2.08-5.4-4.5v-.05c0-2.38,2.17-4.21,5.14-4.21a7.94,7.94,0,0,1,5.49,1.95l-.75.93A6.9,6.9,0,0,0,47,13.48c-2.36,0-3.91,1.35-3.91,3v0c0,1.69.87,2.72,4.66,3.5S53,22.12,53,24.46v0c0,2.59-2.21,4.37-5.3,4.37A9.14,9.14,0,0,1,41.29,26.31Z" transform="translate(-9.26 -11.94)"/>
    <path class="cls-1" d="M57,12.63H68.35v1.1H58.15V20h9.17v1.1H58.15v6.42H68.46v1.1H57Z" transform="translate(-9.26 -11.94)"/>
    <path class="cls-1" d="M85.31,20.68v0a8.05,8.05,0,1,1,16.1-.05v.05a8.05,8.05,0,1,1-16.1,0Zm14.86,0v0a6.93,6.93,0,0,0-6.83-7.21,6.85,6.85,0,0,0-6.8,7.16v.05a6.93,6.93,0,0,0,6.84,7.2A6.85,6.85,0,0,0,100.17,20.68Z" transform="translate(-9.26 -11.94)"/>
    <path class="cls-1" d="M105.21,17h1.12v2.6a5.65,5.65,0,0,1,4.81-2.88,5.8,5.8,0,0,1,5.67,6.06v0a5.84,5.84,0,0,1-5.67,6.11,5.62,5.62,0,0,1-4.81-2.79V32.3h-1.12Zm10.39,5.87v0a4.69,4.69,0,0,0-4.58-5,4.89,4.89,0,0,0-4.76,5v0a4.87,4.87,0,0,0,4.76,5C113.56,27.84,115.6,26,115.6,22.85Z" transform="translate(-9.26 -11.94)"/>
    <path class="cls-1" d="M119.51,22.83v0c0-3.39,2.38-6.09,5.54-6.09s5.35,2.66,5.35,6.11a3.46,3.46,0,0,1,0,.46H120.7a4.63,4.63,0,0,0,4.58,4.59,5.24,5.24,0,0,0,4-1.83l.78.69a6.15,6.15,0,0,1-4.83,2.2A5.8,5.8,0,0,1,119.51,22.83Zm9.68-.57c-.16-2.36-1.51-4.53-4.19-4.53-2.31,0-4.09,1.95-4.3,4.53Z" transform="translate(-9.26 -11.94)"/>
    <path class="cls-1" d="M133.67,17h1.12v2.17A4.59,4.59,0,0,1,139,16.7a4.44,4.44,0,0,1,4.67,4.8v7.14h-1.12V21.71c0-2.4-1.35-4-3.71-4a4,4,0,0,0-4.05,4.16v6.75h-1.12Z" transform="translate(-9.26 -11.94)"/>
    <path class="cls-1" d="M146.92,26.31l.78-.89a7.77,7.77,0,0,0,5.74,2.37c2.4,0,4.05-1.34,4.05-3.17v-.05c0-1.69-.89-2.68-4.53-3.41-3.84-.78-5.4-2.08-5.4-4.5v-.05c0-2.38,2.17-4.21,5.15-4.21a8,8,0,0,1,5.49,1.95l-.76.93a6.9,6.9,0,0,0-4.78-1.8c-2.35,0-3.91,1.35-3.91,3v0c0,1.69.87,2.72,4.67,3.5s5.26,2.08,5.26,4.42v0c0,2.59-2.22,4.37-5.31,4.37A9.14,9.14,0,0,1,146.92,26.31Z" transform="translate(-9.26 -11.94)"/>
    <path class="cls-1" d="M162.85,25.65V18h-1.7V17h1.7V13.25H164V17h4.09v1H164v7.52a2,2,0,0,0,2.33,2.26,3.84,3.84,0,0,0,1.71-.41v1.06a4.3,4.3,0,0,1-1.89.41A3,3,0,0,1,162.85,25.65Z" transform="translate(-9.26 -11.94)"/>
    <path class="cls-1" d="M170.42,25.26v-.05c0-2.42,2.08-3.8,5.1-3.8a13.89,13.89,0,0,1,3.86.51v-.51c0-2.35-1.44-3.56-3.84-3.56a7.81,7.81,0,0,0-3.66.93l-.41-1a9.44,9.44,0,0,1,4.14-1,5,5,0,0,1,3.68,1.28,4.44,4.44,0,0,1,1.19,3.3v7.27h-1.1V26.7a5.31,5.31,0,0,1-4.46,2.22C172.75,28.92,170.42,27.68,170.42,25.26Zm9-1V23a15.14,15.14,0,0,0-4-.53c-2.47,0-3.84,1.1-3.84,2.72v.05c0,1.69,1.6,2.67,3.38,2.67C177.37,27.86,179.41,26.4,179.41,24.27Z" transform="translate(-9.26 -11.94)"/>
    <path class="cls-1" d="M183.71,22.85v0a6,6,0,0,1,10.61-4l-.8.83a5.25,5.25,0,0,0-3.88-1.93,4.82,4.82,0,0,0-4.72,5v0a4.91,4.91,0,0,0,4.81,5.05,5.22,5.22,0,0,0,3.91-1.94l.78.69a6,6,0,0,1-10.71-3.76Z" transform="translate(-9.26 -11.94)"/>
    <path class="cls-1" d="M197.58,11.94h1.12V24.46L205.92,17h1.49l-5.1,5.17,5.26,6.49h-1.42L201.53,23l-2.83,2.86v2.83h-1.12Z" transform="translate(-9.26 -11.94)"/><path class="cls-1" d="M216.79,20.68v0a8.05,8.05,0,0,1,8-8.28A8.43,8.43,0,0,1,231,14.92l-.84.87a7.36,7.36,0,0,0-5.4-2.36A6.84,6.84,0,0,0,218,20.59v.05a6.9,6.9,0,0,0,6.77,7.2,7.32,7.32,0,0,0,5.51-2.49l.8.78a8.47,8.47,0,0,1-6.36,2.79A8,8,0,0,1,216.79,20.68Z" transform="translate(-9.26 -11.94)"/>
    <path class="cls-1" d="M234.3,11.94h1.12v16.7H234.3Z" transform="translate(-9.26 -11.94)"/><path class="cls-1" d="M239,22.85v0a6,6,0,0,1,6-6.11,6,6,0,0,1,6,6.06v0a6,6,0,0,1-6,6.11A6,6,0,0,1,239,22.85Zm10.78,0v0A4.9,4.9,0,0,0,245,17.75a4.81,4.81,0,0,0-4.75,5v0a4.89,4.89,0,0,0,4.8,5.05A4.81,4.81,0,0,0,249.81,22.85Z" transform="translate(-9.26 -11.94)"/>
    <path class="cls-1" d="M254.25,24.11V17h1.12v6.93c0,2.4,1.35,4,3.7,4a4,4,0,0,0,4.05-4.17V17h1.12V28.64h-1.12V26.47a4.57,4.57,0,0,1-4.21,2.45C256,28.92,254.25,26.9,254.25,24.11Z" transform="translate(-9.26 -11.94)"/><path class="cls-1" d="M267.75,22.85v0a5.84,5.84,0,0,1,5.67-6.11,5.62,5.62,0,0,1,4.8,2.79V11.94h1.12v16.7h-1.12V26a5.61,5.61,0,0,1-4.8,2.89A5.8,5.8,0,0,1,267.75,22.85Zm10.54,0v0a4.87,4.87,0,0,0-4.76-5c-2.54,0-4.57,1.85-4.57,5v0a4.7,4.7,0,0,0,4.57,5A4.88,4.88,0,0,0,278.29,22.83Z" transform="translate(-9.26 -11.94)"/>
    <path class="cls-1" d="M70.41,25.11v0a3.66,3.66,0,1,1,7.31,0v0a3.66,3.66,0,1,1-7.31,0Zm6.89,0v0a3.24,3.24,0,1,0-6.47,0v0a3.24,3.24,0,1,0,6.47,0Zm-4.6-1.91h1.64c.75,0,1.36.4,1.36,1.13a1.14,1.14,0,0,1-.9,1.12l1,1.42h-.74l-.92-1.34h-.88v1.34H72.7ZM74.28,25c.52,0,.81-.28.81-.67s-.31-.65-.81-.65h-1V25Z" transform="translate(-9.26 -11.94)"/>
</svg>